<svg xmlns="http://www.w3.org/2000/svg" viewBox="0 0 24 24" id="resso"><g fill-rule="evenodd"><path d="M10.7345,5.92532c-1.85763,-1.16633 -4.2345,0.19685 -4.2345,2.38318v2.2008c0,0.2761 0.22386,0.5 0.5,0.5c0.27614,0 0.5,-0.2239 0.5,-0.5v-2.2008c0,-1.42541 1.53254,-2.271 2.7027,-1.53628l5.4551,3.42498c1.1005,0.691 1.128,2.3111 0.0502,3.0399l-2.9127,1.9694l-3.96418,-2.6385c-0.9969,-0.6636 -2.33112,0.0511 -2.33112,1.2486v1.6054c0,2.2286 2.46007,3.5849 4.3131,2.3319l1.9866,-1.3432l3.0132,2.0055c0.2299,0.153 0.5402,0.0907 0.6932,-0.1392c0.1531,-0.2298 0.0907,-0.5402 -0.1391,-0.6932l-2.672,-1.7785l2.5731,-1.7398c1.6756,-1.133 1.6345,-3.6396 -0.0786,-4.71516l-5.455,-3.42502Zm-2.45746,7.47508l3.62296,2.4115l-1.647,1.1136c-1.1674,0.7894 -2.753,-0.0504 -2.753,-1.5035v-1.6054c0,-0.3991 0.44474,-0.6374 0.77704,-0.4162Z"></path><path d="M7,1.5c-3.03757,0 -5.5,2.46243 -5.5,5.5v10c0,3.0376 2.46243,5.5 5.5,5.5h10c3.0376,0 5.5,-2.4624 5.5,-5.5v-10c0,-3.03757 -2.4624,-5.5 -5.5,-5.5h-10Zm-4.5,5.5c0,-2.48528 2.01472,-4.5 4.5,-4.5h10c2.4853,0 4.5,2.01472 4.5,4.5v10c0,2.4853 -2.0147,4.5 -4.5,4.5h-10c-2.48528,0 -4.5,-2.0147 -4.5,-4.5v-10Z"></path></g></svg>